<svg xmlns="http://www.w3.org/2000/svg" viewBox="0 0 24 24"><path d="M22,12a9.694,9.694,0,0,1-2.916,7.072,1.555,1.555,0,0,1-.217.212,8.517,8.517,0,0,1-1.016.853A9.588,9.588,0,0,1,12.009,22a9.536,9.536,0,0,1-5.833-1.863A9.011,9.011,0,0,1,4.93,19.072a9.526,9.526,0,0,1-2.782-5.228,9.792,9.792,0,0,1-.134-1.18C2.005,12.443,2,12.221,2,12s0-.456.014-.669a.13.13,0,0,1,.018-.064,9.522,9.522,0,0,1,2.9-6.358A9.723,9.723,0,0,1,12.009,2a9.678,9.678,0,0,1,7.075,2.909A9.756,9.756,0,0,1,22,12Z" style="fill:#eee;fill-rule:evenodd"/><path d="M19.965,5.919,17.9,7.984c-1.209,1.208-1.316,2.259-1.316,4.113a5.768,5.768,0,0,0,1.5,4.4c.9.9,1.753,1.748,1.753,1.748q-.346.423-.747.829a1.555,1.555,0,0,1-.217.212,8.236,8.236,0,0,1-.729.641l-1.62-1.618c-1.44-1.438-2.584-1.577-4.486-1.577-1.824,0-3.066.168-4.4,1.5-.8.8-1.712,1.715-1.712,1.715a8.758,8.758,0,0,1-.988-.876q-.387-.387-.724-.793s.9-.908,1.767-1.77A5.673,5.673,0,0,0,7.459,12.1a5.682,5.682,0,0,0-1.44-4.292C5.2,6.99,4.077,5.868,4.077,5.868a10.921,10.921,0,0,1,.853-.959q.406-.4.831-.742L7.639,6.043a5.85,5.85,0,0,0,4.393,1.508,5.924,5.924,0,0,0,4.486-1.577C17.286,5.207,18.3,4.2,18.3,4.2a10.528,10.528,0,0,1,.785.71A11.308,11.308,0,0,1,19.965,5.919Z" style="fill:#3a3f51;fill-rule:evenodd"/><path d="M9.263,12.512a2.964,2.964,0,0,1-.036-.328c0-.061-.005-.122-.005-.184s0-.126.005-.184a.041.041,0,0,1,0-.019,2.638,2.638,0,0,1,.8-1.761A2.769,2.769,0,0,1,14.764,12a2.687,2.687,0,0,1-.807,1.959.566.566,0,0,1-.06.06,2.491,2.491,0,0,1-.282.235,2.789,2.789,0,0,1-3.235,0,2.4,2.4,0,0,1-.346-.295A2.642,2.642,0,0,1,9.263,12.512Z" style="fill:#0cf;fill-rule:evenodd"/><path d="M16.564,7.509,15.18,8.86M4.841,5,8.613,8.754m7.808,7.769,2.566,2.654m.172-14.191L16.564,7.509M4.986,19.128,7.51,16.6" style="fill:none;stroke:#0cf;stroke-miterlimit:1;stroke-width:0.18450185406448713px"/><path d="M16.564,7.509,15,9.1M7.443,7.588,9.03,9.17M7.5,16.609,9.049,15m5.715-.129,1.664,1.655" style="fill:none;stroke:#0cf;stroke-miterlimit:1;stroke-width:0.6457564892257049px"/></svg>