<svg xmlns="http://www.w3.org/2000/svg" viewBox="0 0 24 24"><path d="M19.7,17.43a2.3,2.3,0,0,0-2.07,1.3l-3.28-.48A2.3,2.3,0,0,0,12.05,16a2.24,2.24,0,0,0-1.22.36L6.16,11.06a2.25,2.25,0,0,0,.43-1.33,2.3,2.3,0,1,0-1.22,2l4.72,5.33a2.3,2.3,0,1,0,4,2.19l3.29.48a2.3,2.3,0,1,0,2.29-2.32Z" style="fill:#fff"/><path d="M19.7,2a2.28,2.28,0,0,0-1.64,3.88L13,13.05a2.22,2.22,0,0,0-.93-.2,2.3,2.3,0,0,0-2.29,2.29,2.37,2.37,0,0,0,.09.65L6,18.17a2.29,2.29,0,1,0,.6,1.54,2.18,2.18,0,0,0-.09-.63l3.87-2.39a2.29,2.29,0,0,0,3.45-3L19,6.45a2.37,2.37,0,0,0,.76.12A2.29,2.29,0,1,0,19.7,2Z" style="fill:#e5a00d"/></svg>