<svg xmlns="http://www.w3.org/2000/svg" xmlns:xlink="http://www.w3.org/1999/xlink" viewBox="0 0 24 24"><defs><linearGradient id="a" x1="7" y1="19" x2="21.48" y2="4.52" gradientTransform="matrix(1, 0, 0, -1, 0, 26)" gradientUnits="userSpaceOnUse"><stop offset="0" stop-color="#c395fc"/><stop offset="1" stop-color="#4f65f5"/></linearGradient><linearGradient id="b" x1="7.83" y1="22.33" x2="7.83" y2="14" gradientTransform="matrix(1, 0, 0, -1, 0, 26)" gradientUnits="userSpaceOnUse"><stop offset="0" stop-color="#fff" stop-opacity="0.4"/><stop offset="1" stop-color="#fff" stop-opacity="0"/></linearGradient></defs><path d="M12,22A10,10,0,1,0,2,12,10,10,0,0,0,12,22Zm6.67-9.17A5.84,5.84,0,1,1,7,12.83a5.71,5.71,0,0,1,.26-1.71,2.92,2.92,0,1,0,3.86-3.86A5.71,5.71,0,0,1,12.83,7,5.83,5.83,0,0,1,18.67,12.83Z" style="fill-rule:evenodd;fill:url(#a)"/><path d="M18.67,12.83A5.84,5.84,0,0,1,7,13v.21A6.25,6.25,0,1,0,13.25,7H13A5.84,5.84,0,0,1,18.67,12.83Z" style="fill:#131928;fill-rule:evenodd;isolation:isolate;opacity:0.20000000298023224"/><path d="M12,4.5A7.5,7.5,0,0,0,4.5,12a.83.83,0,0,1-.83.83A.84.84,0,0,1,2.83,12,9.18,9.18,0,0,1,12,2.83a.84.84,0,0,1,.83.84A.83.83,0,0,1,12,4.5Z" style="fill-rule:evenodd;fill:url(#b)"/></svg>